<svg width="135" height="22" viewBox="0 0 135 22" fill="none" xmlns="http://www.w3.org/2000/svg">
<path d="M6.576 0.871999C7.528 0.871999 8.356 0.979999 9.06 1.196C9.772 1.404 10.336 1.628 10.752 1.868C11.176 2.108 11.432 2.264 11.52 2.336L10.056 4.772C9.928 4.668 9.708 4.524 9.396 4.34C9.092 4.148 8.724 3.98 8.292 3.836C7.86 3.684 7.392 3.608 6.888 3.608C6.16 3.608 5.576 3.748 5.136 4.028C4.704 4.3 4.488 4.696 4.488 5.216C4.488 5.568 4.604 5.884 4.836 6.164C5.068 6.436 5.408 6.692 5.856 6.932C6.312 7.172 6.868 7.424 7.524 7.688C8.1 7.912 8.648 8.172 9.168 8.468C9.696 8.764 10.164 9.112 10.572 9.512C10.988 9.912 11.316 10.376 11.556 10.904C11.804 11.432 11.928 12.036 11.928 12.716C11.928 13.476 11.772 14.14 11.46 14.708C11.156 15.276 10.732 15.752 10.188 16.136C9.652 16.52 9.036 16.808 8.34 17C7.644 17.192 6.912 17.288 6.144 17.288C5.104 17.288 4.168 17.168 3.336 16.928C2.512 16.68 1.844 16.416 1.332 16.136C0.82 15.856 0.52 15.676 0.432 15.596L1.968 13.064C2.064 13.136 2.244 13.252 2.508 13.412C2.78 13.572 3.108 13.736 3.492 13.904C3.884 14.072 4.308 14.216 4.764 14.336C5.228 14.456 5.7 14.516 6.18 14.516C7.044 14.516 7.696 14.336 8.136 13.976C8.576 13.616 8.796 13.148 8.796 12.572C8.796 12.14 8.656 11.76 8.376 11.432C8.096 11.104 7.7 10.804 7.188 10.532C6.684 10.252 6.08 9.968 5.376 9.68C4.672 9.384 4.016 9.04 3.408 8.648C2.808 8.248 2.324 7.76 1.956 7.184C1.588 6.6 1.404 5.884 1.404 5.036C1.404 4.196 1.64 3.464 2.112 2.84C2.592 2.216 3.224 1.732 4.008 1.388C4.8 1.044 5.656 0.871999 6.576 0.871999ZM13.2684 7.148H15.0444V3.104H18.0684V7.148H20.3964V9.68H18.0684V13.244C18.0684 13.716 18.1444 14.084 18.2964 14.348C18.4484 14.604 18.6884 14.732 19.0164 14.732C19.2644 14.732 19.4684 14.684 19.6284 14.588C19.7884 14.484 19.8844 14.412 19.9164 14.372L20.9964 16.556C20.9484 16.604 20.7924 16.688 20.5284 16.808C20.2724 16.928 19.9404 17.036 19.5324 17.132C19.1324 17.236 18.6804 17.288 18.1764 17.288C17.2724 17.288 16.5244 17.028 15.9324 16.508C15.3404 15.98 15.0444 15.164 15.0444 14.06V9.68H13.2684V7.148ZM27.2145 17.288C26.1665 17.288 25.2305 17.064 24.4065 16.616C23.5905 16.168 22.9505 15.556 22.4865 14.78C22.0225 13.996 21.7905 13.104 21.7905 12.104C21.7905 11.104 22.0225 10.212 22.4865 9.428C22.9505 8.636 23.5905 8.012 24.4065 7.556C25.2305 7.092 26.1665 6.86 27.2145 6.86C28.2705 6.86 29.2025 7.092 30.0105 7.556C30.8185 8.012 31.4505 8.636 31.9065 9.428C32.3625 10.212 32.5905 11.104 32.5905 12.104C32.5905 13.104 32.3625 13.996 31.9065 14.78C31.4505 15.556 30.8185 16.168 30.0105 16.616C29.2025 17.064 28.2705 17.288 27.2145 17.288ZM27.2145 14.756C27.7185 14.756 28.1545 14.644 28.5225 14.42C28.8985 14.188 29.1865 13.872 29.3865 13.472C29.5945 13.064 29.6985 12.604 29.6985 12.092C29.6985 11.58 29.5945 11.12 29.3865 10.712C29.1865 10.304 28.8985 9.984 28.5225 9.752C28.1545 9.512 27.7185 9.392 27.2145 9.392C26.7105 9.392 26.2705 9.512 25.8945 9.752C25.5265 9.984 25.2385 10.304 25.0305 10.712C24.8225 11.12 24.7185 11.58 24.7185 12.092C24.7185 12.604 24.8225 13.064 25.0305 13.472C25.2385 13.872 25.5265 14.188 25.8945 14.42C26.2705 14.644 26.7105 14.756 27.2145 14.756ZM39.5683 14.864C40.0883 14.864 40.5123 14.776 40.8403 14.6C41.1683 14.424 41.3843 14.292 41.4883 14.204L42.9043 16.304C42.7923 16.392 42.5843 16.516 42.2803 16.676C41.9763 16.836 41.5883 16.976 41.1163 17.096C40.6523 17.224 40.1203 17.288 39.5203 17.288C38.4803 17.288 37.5483 17.08 36.7243 16.664C35.9003 16.24 35.2483 15.64 34.7683 14.864C34.2963 14.08 34.0603 13.148 34.0603 12.068C34.0603 10.98 34.2963 10.048 34.7683 9.272C35.2483 8.496 35.9003 7.9 36.7243 7.484C37.5483 7.068 38.4803 6.86 39.5203 6.86C40.1123 6.86 40.6363 6.924 41.0923 7.052C41.5563 7.18 41.9443 7.328 42.2563 7.496C42.5683 7.656 42.7843 7.788 42.9043 7.892L41.4523 10.004C41.3963 9.94 41.2883 9.852 41.1283 9.74C40.9683 9.628 40.7563 9.524 40.4923 9.428C40.2363 9.332 39.9283 9.284 39.5683 9.284C39.1283 9.284 38.7083 9.4 38.3083 9.632C37.9163 9.864 37.5963 10.188 37.3483 10.604C37.1003 11.02 36.9763 11.508 36.9763 12.068C36.9763 12.628 37.1003 13.12 37.3483 13.544C37.5963 13.96 37.9163 14.284 38.3083 14.516C38.7083 14.748 39.1283 14.864 39.5683 14.864ZM50.9293 7.148H54.4333L49.6213 11.852L54.8653 17H51.2773L47.1853 12.884V17H44.1373V0.487999H47.1853V10.76L50.9293 7.148ZM67.4229 0.871999C68.3749 0.871999 69.2029 0.979999 69.9069 1.196C70.6189 1.404 71.1829 1.628 71.5989 1.868C72.0229 2.108 72.2789 2.264 72.3669 2.336L70.9029 4.772C70.7749 4.668 70.5549 4.524 70.2429 4.34C69.9389 4.148 69.5709 3.98 69.1389 3.836C68.7069 3.684 68.2389 3.608 67.7349 3.608C67.0069 3.608 66.4229 3.748 65.9829 4.028C65.5509 4.3 65.3349 4.696 65.3349 5.216C65.3349 5.568 65.4509 5.884 65.6829 6.164C65.9149 6.436 66.2549 6.692 66.7029 6.932C67.1589 7.172 67.7149 7.424 68.3709 7.688C68.9469 7.912 69.4949 8.172 70.0149 8.468C70.5429 8.764 71.0109 9.112 71.4189 9.512C71.8349 9.912 72.1629 10.376 72.4029 10.904C72.6509 11.432 72.7749 12.036 72.7749 12.716C72.7749 13.476 72.6189 14.14 72.3069 14.708C72.0029 15.276 71.5789 15.752 71.0349 16.136C70.4989 16.52 69.8829 16.808 69.1869 17C68.4909 17.192 67.7589 17.288 66.9909 17.288C65.9509 17.288 65.0149 17.168 64.1829 16.928C63.3589 16.68 62.6909 16.416 62.1789 16.136C61.6669 15.856 61.3669 15.676 61.2789 15.596L62.8149 13.064C62.9109 13.136 63.0909 13.252 63.3549 13.412C63.6269 13.572 63.9549 13.736 64.3389 13.904C64.7309 14.072 65.1549 14.216 65.6109 14.336C66.0749 14.456 66.5469 14.516 67.0269 14.516C67.8909 14.516 68.5429 14.336 68.9829 13.976C69.4229 13.616 69.6429 13.148 69.6429 12.572C69.6429 12.14 69.5029 11.76 69.2229 11.432C68.9429 11.104 68.5469 10.804 68.0349 10.532C67.5309 10.252 66.9269 9.968 66.2229 9.68C65.5189 9.384 64.8629 9.04 64.2549 8.648C63.6549 8.248 63.1709 7.76 62.8029 7.184C62.4349 6.6 62.2509 5.884 62.2509 5.036C62.2509 4.196 62.4869 3.464 62.9589 2.84C63.4389 2.216 64.0709 1.732 64.8549 1.388C65.6469 1.044 66.5029 0.871999 67.4229 0.871999ZM77.2234 12.752C77.2474 13.2 77.3674 13.6 77.5834 13.952C77.7994 14.304 78.1114 14.58 78.5194 14.78C78.9354 14.98 79.4314 15.08 80.0074 15.08C80.5274 15.08 80.9834 15.016 81.3754 14.888C81.7754 14.76 82.1114 14.604 82.3834 14.42C82.6634 14.228 82.8714 14.044 83.0074 13.868L84.2674 15.74C84.0434 16.02 83.7434 16.28 83.3674 16.52C82.9994 16.752 82.5274 16.936 81.9514 17.072C81.3834 17.216 80.6714 17.288 79.8154 17.288C78.7354 17.288 77.7874 17.076 76.9714 16.652C76.1554 16.228 75.5194 15.616 75.0634 14.816C74.6074 14.016 74.3794 13.064 74.3794 11.96C74.3794 11 74.5834 10.136 74.9914 9.368C75.3994 8.592 75.9914 7.98 76.7674 7.532C77.5514 7.084 78.4914 6.86 79.5874 6.86C80.6194 6.86 81.5114 7.06 82.2634 7.46C83.0234 7.852 83.6114 8.428 84.0274 9.188C84.4434 9.948 84.6514 10.876 84.6514 11.972C84.6514 12.036 84.6474 12.168 84.6394 12.368C84.6394 12.56 84.6314 12.688 84.6154 12.752H77.2234ZM81.7954 10.868C81.7874 10.612 81.7074 10.336 81.5554 10.04C81.4114 9.744 81.1834 9.492 80.8714 9.284C80.5594 9.076 80.1434 8.972 79.6234 8.972C79.1034 8.972 78.6754 9.072 78.3394 9.272C78.0114 9.472 77.7634 9.72 77.5954 10.016C77.4274 10.304 77.3314 10.588 77.3074 10.868H81.7954ZM91.6296 14.864C92.1496 14.864 92.5736 14.776 92.9016 14.6C93.2296 14.424 93.4456 14.292 93.5496 14.204L94.9656 16.304C94.8536 16.392 94.6456 16.516 94.3416 16.676C94.0376 16.836 93.6496 16.976 93.1776 17.096C92.7136 17.224 92.1816 17.288 91.5816 17.288C90.5416 17.288 89.6096 17.08 88.7856 16.664C87.9616 16.24 87.3096 15.64 86.8296 14.864C86.3576 14.08 86.1216 13.148 86.1216 12.068C86.1216 10.98 86.3576 10.048 86.8296 9.272C87.3096 8.496 87.9616 7.9 88.7856 7.484C89.6096 7.068 90.5416 6.86 91.5816 6.86C92.1736 6.86 92.6976 6.924 93.1536 7.052C93.6176 7.18 94.0056 7.328 94.3176 7.496C94.6296 7.656 94.8456 7.788 94.9656 7.892L93.5136 10.004C93.4576 9.94 93.3496 9.852 93.1896 9.74C93.0296 9.628 92.8176 9.524 92.5536 9.428C92.2976 9.332 91.9896 9.284 91.6296 9.284C91.1896 9.284 90.7696 9.4 90.3696 9.632C89.9776 9.864 89.6576 10.188 89.4096 10.604C89.1616 11.02 89.0376 11.508 89.0376 12.068C89.0376 12.628 89.1616 13.12 89.4096 13.544C89.6576 13.96 89.9776 14.284 90.3696 14.516C90.7696 14.748 91.1896 14.864 91.6296 14.864ZM95.6008 7.148H97.3768V3.104H100.401V7.148H102.729V9.68H100.401V13.244C100.401 13.716 100.477 14.084 100.629 14.348C100.781 14.604 101.021 14.732 101.349 14.732C101.597 14.732 101.801 14.684 101.961 14.588C102.121 14.484 102.217 14.412 102.249 14.372L103.329 16.556C103.281 16.604 103.125 16.688 102.861 16.808C102.605 16.928 102.273 17.036 101.865 17.132C101.465 17.236 101.013 17.288 100.509 17.288C99.6048 17.288 98.8568 17.028 98.2648 16.508C97.6728 15.98 97.3768 15.164 97.3768 14.06V9.68H95.6008V7.148ZM109.547 17.288C108.499 17.288 107.563 17.064 106.739 16.616C105.923 16.168 105.283 15.556 104.819 14.78C104.355 13.996 104.123 13.104 104.123 12.104C104.123 11.104 104.355 10.212 104.819 9.428C105.283 8.636 105.923 8.012 106.739 7.556C107.563 7.092 108.499 6.86 109.547 6.86C110.603 6.86 111.535 7.092 112.343 7.556C113.151 8.012 113.783 8.636 114.239 9.428C114.695 10.212 114.923 11.104 114.923 12.104C114.923 13.104 114.695 13.996 114.239 14.78C113.783 15.556 113.151 16.168 112.343 16.616C111.535 17.064 110.603 17.288 109.547 17.288ZM109.547 14.756C110.051 14.756 110.487 14.644 110.855 14.42C111.231 14.188 111.519 13.872 111.719 13.472C111.927 13.064 112.031 12.604 112.031 12.092C112.031 11.58 111.927 11.12 111.719 10.712C111.519 10.304 111.231 9.984 110.855 9.752C110.487 9.512 110.051 9.392 109.547 9.392C109.043 9.392 108.603 9.512 108.227 9.752C107.859 9.984 107.571 10.304 107.363 10.712C107.155 11.12 107.051 11.58 107.051 12.092C107.051 12.604 107.155 13.064 107.363 13.472C107.571 13.872 107.859 14.188 108.227 14.42C108.603 14.644 109.043 14.756 109.547 14.756ZM119.669 17H116.621V7.148H119.669V8.744H119.609C119.665 8.552 119.817 8.308 120.065 8.012C120.321 7.716 120.673 7.452 121.121 7.22C121.569 6.98 122.109 6.86 122.741 6.86C123.197 6.86 123.609 6.928 123.977 7.064C124.353 7.192 124.621 7.32 124.781 7.448L123.581 9.944C123.477 9.816 123.281 9.684 122.993 9.548C122.713 9.412 122.361 9.344 121.937 9.344C121.433 9.344 121.013 9.484 120.677 9.764C120.341 10.036 120.089 10.372 119.921 10.772C119.753 11.164 119.669 11.532 119.669 11.876V17ZM129.75 6.86C130.342 6.86 130.89 6.916 131.394 7.028C131.898 7.132 132.322 7.252 132.666 7.388C133.018 7.524 133.25 7.64 133.362 7.736L132.318 9.572C132.158 9.444 131.87 9.292 131.454 9.116C131.046 8.94 130.59 8.852 130.086 8.852C129.63 8.852 129.246 8.932 128.934 9.092C128.622 9.244 128.466 9.476 128.466 9.788C128.466 10.1 128.634 10.348 128.97 10.532C129.306 10.716 129.774 10.876 130.374 11.012C130.878 11.116 131.374 11.276 131.862 11.492C132.35 11.7 132.754 12.004 133.074 12.404C133.394 12.796 133.554 13.32 133.554 13.976C133.554 14.624 133.414 15.164 133.134 15.596C132.862 16.02 132.498 16.356 132.042 16.604C131.586 16.852 131.086 17.028 130.542 17.132C129.998 17.236 129.458 17.288 128.922 17.288C128.226 17.288 127.614 17.22 127.086 17.084C126.558 16.956 126.122 16.808 125.778 16.64C125.442 16.464 125.202 16.316 125.058 16.196L126.102 14.156C126.31 14.34 126.65 14.544 127.122 14.768C127.602 14.984 128.118 15.092 128.67 15.092C129.246 15.092 129.698 14.992 130.026 14.792C130.362 14.592 130.53 14.324 130.53 13.988C130.53 13.74 130.45 13.54 130.29 13.388C130.13 13.228 129.91 13.096 129.63 12.992C129.35 12.888 129.022 12.796 128.646 12.716C128.302 12.644 127.95 12.54 127.59 12.404C127.23 12.26 126.894 12.072 126.582 11.84C126.27 11.608 126.018 11.32 125.826 10.976C125.634 10.624 125.538 10.204 125.538 9.716C125.538 9.092 125.738 8.572 126.138 8.156C126.538 7.732 127.058 7.412 127.698 7.196C128.338 6.972 129.022 6.86 129.75 6.86Z" fill="#333333"/>
</svg>
